<svg id="圖層_1" data-name="圖層 1" xmlns="http://www.w3.org/2000/svg" viewBox="0 0 100 100"><defs><style>.cls-1{fill:#e1a3bb;}.cls-2{fill:#fff;}</style></defs><circle class="cls-1" cx="50" cy="50" r="50"/><path class="cls-2" d="M38.83,51.54H44V72.86a.77.77,0,0,0,.76.77h8.78a.77.77,0,0,0,.76-.77V51.64h6A.77.77,0,0,0,61,51l.9-7.85a.77.77,0,0,0-.19-.6.76.76,0,0,0-.57-.25H54.31V37.35c0-1.49.8-2.24,2.38-2.24h4.48a.76.76,0,0,0,.76-.76V27.14a.76.76,0,0,0-.76-.76H54.71A11.83,11.83,0,0,0,47,29.29a8.09,8.09,0,0,0-2.7,7.22v5.76H38.83a.76.76,0,0,0-.76.76v7.75a.76.76,0,0,0,.76.76Zm0,0"/></svg>