<svg id="圖層_1" data-name="圖層 1" xmlns="http://www.w3.org/2000/svg" viewBox="0 0 100 100"><defs><style>.cls-1{fill:#c3bebd;}.cls-2{fill:#fff;}</style></defs><circle class="cls-1" cx="50" cy="50" r="50"/><path class="cls-2" d="M33,27.14H67A5.88,5.88,0,0,1,72.86,33V67A5.88,5.88,0,0,1,67,72.86H33A5.89,5.89,0,0,1,27.14,67V33A5.89,5.89,0,0,1,33,27.14Zm27.44,5.08a2.06,2.06,0,0,0-2.06,2.06V39.2a2.06,2.06,0,0,0,2.06,2.06h5.17a2.05,2.05,0,0,0,2-2.06V34.28a2.06,2.06,0,0,0-2-2.06Zm7.24,14.25h-4a13.45,13.45,0,0,1,.59,3.93,14.22,14.22,0,0,1-28.43,0,13.45,13.45,0,0,1,.59-3.93h-4.2V65.79A1.83,1.83,0,0,0,34,67.61H65.88a1.82,1.82,0,0,0,1.81-1.82ZM50,41a8.9,8.9,0,1,0,9.19,8.9A9,9,0,0,0,50,41Zm0,0"/></svg>