<svg id="圖層_1" data-name="圖層 1" xmlns="http://www.w3.org/2000/svg" viewBox="0 0 100 100"><defs><style>.cls-1{fill:#e1a3bb;}.cls-2{fill:#fff;}</style></defs><circle class="cls-1" cx="50" cy="50" r="50"/><path class="cls-2" d="M50.19,27.58c6.79.14,13.14,2,18.5,6.65a18.82,18.82,0,0,1,6.58,11.08,16.85,16.85,0,0,1-3.21,13.33A36.49,36.49,0,0,1,66,65.08,94.12,94.12,0,0,1,51.51,75.15,8.62,8.62,0,0,1,49,76.24c-.86.17-1.33-.19-1.25-1.06s.24-1.78.39-2.66c.43-2.59-.21-3.45-2.81-3.82a27.42,27.42,0,0,1-11.13-4.07,20.18,20.18,0,0,1-8.82-10.86c-2.17-6.84-.43-12.84,4.37-18C33.84,31.37,39.08,29,45,28A34.81,34.81,0,0,1,50.19,27.58Zm4.68,22.07-.19,0C53.28,47.8,51.84,46,50.52,44a2.37,2.37,0,0,0-2.44-1.24c-.95.11-1,.08-1,1,0,3.14,0,6.28,0,9.42,0,1.89-.07,1.68,1.71,1.68,1.06,0,1.09,0,1.09-1.09v-6l.6.78C51.71,50.32,53,52,54.2,53.74A2.34,2.34,0,0,0,56.65,55c.93-.09,1-.06,1-1,0-3.09,0-6.18,0-9.27,0-2.13.27-1.86-1.93-1.9-.62,0-.85.22-.84.83,0,1.42,0,2.84,0,4.26Zm4.54-.78c0,1.72,0,3.44,0,5.16,0,.68.21.93.9.92,1.74,0,3.49,0,5.23,0,2.31,0,2,.31,2-2,0-.56-.25-.76-.76-.75H63.4c-1.44,0-1.2.27-1.26-1.27,0-.51.18-.62.65-.61.92,0,1.84,0,2.76,0,2.3,0,1.93.24,2-2,0-.58-.21-.81-.79-.8H63.38c-1.26,0-1.24,0-1.24-1.28,0-.44.13-.61.59-.6,1,0,1.89,0,2.84,0,2.28,0,1.91.25,2-2,0-.59-.24-.78-.81-.77-2.16,0-4.33,0-6.5,0-.62,0-.83.23-.82.84C59.43,45.38,59.41,47.13,59.41,48.87Zm-26.57,0V53.9c0,1,.08,1,1,1h5.3c2,0,1.83.25,1.86-1.83,0-.7-.21-1-.94-1-1.27,0-2.54,0-3.81,0-.48,0-.64-.12-.63-.62,0-2.29,0-4.58,0-6.87,0-2.06.2-1.84-1.83-1.85-.89,0-1,.08-1,1C32.84,45.48,32.84,47.15,32.84,48.82Zm12.48,0V44.58c0-2,.12-1.76-1.77-1.77-1,0-1,0-1,1,0,3.07,0,6.13,0,9.2,0,2.15-.24,1.89,1.91,1.92.65,0,.9-.23.89-.87C45.3,52.33,45.32,50.58,45.32,48.84Z"/></svg>