<svg id="圖層_1" data-name="圖層 1" xmlns="http://www.w3.org/2000/svg" viewBox="0 0 100 100"><defs><style>.cls-1{fill:#373838;}.cls-2{fill:#cf678f;}</style></defs><path class="cls-1" d="M75,0H25A25,25,0,0,0,0,25V75a25,25,0,0,0,25,25H75a25,25,0,0,0,25-25V25A25,25,0,0,0,75,0Zm5.35,46.83C77,64.24,50,79.3,50,79.3S23,64.24,19.65,46.83c-3.33-17.16,6.46-26.12,16.57-26.12A15.29,15.29,0,0,1,50,27.61a15.29,15.29,0,0,1,13.78-6.9C73.89,20.71,83.68,29.67,80.35,46.83Z"/><path class="cls-2" d="M50,79.3S77,64.24,80.35,46.83c3.33-17.16-6.46-26.12-16.57-26.12A15.33,15.33,0,0,0,50,27.6a15.33,15.33,0,0,0-13.78-6.89c-10.12,0-19.9,9-16.57,26.12C23,64.24,50,79.3,50,79.3Z"/></svg>