<svg id="圖層_1" data-name="圖層 1" xmlns="http://www.w3.org/2000/svg" viewBox="0 0 100 100"><defs><style>.cls-1{fill:#cf678f;}</style></defs><path class="cls-1" d="M49.85,47.3A23.65,23.65,0,1,1,73.5,23.65,23.68,23.68,0,0,1,49.85,47.3Zm0-35.59A11.94,11.94,0,1,0,61.79,23.65,12,12,0,0,0,49.85,11.71Z"/><path class="cls-1" d="M18.37,100a5.89,5.89,0,0,1-5.5-3.83C4,72.16,25.36,54.12,26.27,53.36a5.88,5.88,0,0,1,.72-.51,46,46,0,0,1,21.84-5.4,47.53,47.53,0,0,1,21.43,5.19C89.7,62.36,90.65,84.83,88.43,95.35A5.88,5.88,0,0,1,82.7,100ZM48.65,59.14a34,34,0,0,0-15,3.43,1.46,1.46,0,0,0-.41.29C30.42,65.4,21.43,74.64,22.58,86.57a1.91,1.91,0,0,0,1.9,1.72H75.64a1.91,1.91,0,0,0,1.91-1.9C77.56,80,76,68.58,65,63.11A36.31,36.31,0,0,0,48.65,59.14Z"/></svg>